/* XPM */
static char * QHisto_xpm[] = {
"64 64 386 2",
"  	c None",
". 	c #EEEAE4",
"+ 	c #EDE9E3",
"@ 	c #EFEBE5",
"# 	c #A59C92",
"$ 	c #F4EEE6",
"% 	c #F2ECE5",
"& 	c #F4EFE7",
"* 	c #A89E92",
"= 	c #ECE8E2",
"- 	c #ECE9E3",
"; 	c #F0ECE7",
"> 	c #F1EDE7",
", 	c #EDE8E2",
"' 	c #F1EDE8",
") 	c #F4F0E9",
"! 	c #EFEBE4",
"~ 	c #ECE8E3",
"{ 	c #EEE8DE",
"] 	c #C9BCB2",
"^ 	c #B3B0B1",
"/ 	c #EAEEE9",
"( 	c #F0E7DB",
"_ 	c #B8AA9C",
": 	c #888A91",
"< 	c #CFD3D5",
"[ 	c #EEECE5",
"} 	c #E5DED5",
"| 	c #A4938B",
"1 	c #939495",
"2 	c #E2F0EE",
"3 	c #DCD1C6",
"4 	c #C2C2C0",
"5 	c #CABBA2",
"6 	c #8B929F",
"7 	c #D0D2D7",
"8 	c #EFEAE4",
"9 	c #EFECE6",
"0 	c #C6B5AD",
"a 	c #A09995",
"b 	c #DEECEB",
"c 	c #EDE6DF",
"d 	c #EBEAE8",
"e 	c #EACEAA",
"f 	c #87919E",
"g 	c #CCD1D7",
"h 	c #EDEAE4",
"i 	c #F0EDE7",
"j 	c #CAB9B1",
"k 	c #A29A95",
"l 	c #DDECEA",
"m 	c #EFEBE6",
"n 	c #F1E2CC",
"o 	c #8F8B8B",
"p 	c #B6BDC2",
"q 	c #ECEAE5",
"r 	c #ECE8E1",
"s 	c #DED2C2",
"t 	c #978E91",
"u 	c #E4EDE9",
"v 	c #EEE9E3",
"w 	c #F0EEE8",
"x 	c #CABAB2",
"y 	c #A39C96",
"z 	c #DFEFEE",
"A 	c #F4E7D5",
"B 	c #9B9391",
"C 	c #B1B7BC",
"D 	c #EDEDE7",
"E 	c #EBE6E0",
"F 	c #BEB0A5",
"G 	c #7D7070",
"H 	c #D5EBEB",
"I 	c #EFE9E3",
"J 	c #F0ECE6",
"K 	c #EEEAE5",
"L 	c #E2D7CD",
"M 	c #A29284",
"N 	c #6B6A6F",
"O 	c #A8AEB5",
"P 	c #DAD2C4",
"Q 	c #94887D",
"R 	c #706E6A",
"S 	c #8A959E",
"T 	c #DADBD9",
"U 	c #EEEAE3",
"V 	c #E4DDD6",
"W 	c #947B73",
"X 	c #D2EAEB",
"Y 	c #F5F1EA",
"Z 	c #8D8B88",
"` 	c #757673",
" .	c #767874",
"..	c #70706D",
"+.	c #BBB9B4",
"@.	c #F2EEE8",
"#.	c #E4DDD7",
"$.	c #957C73",
"%.	c #EFE9E2",
"&.	c #F4F9F3",
"*.	c #8A2827",
"=.	c #ED0000",
"-.	c #FF0000",
";.	c #B60000",
">.	c #B78682",
",.	c #F2F3ED",
"'.	c #E3DCD5",
").	c #937B73",
"!.	c #D0E7E8",
"~.	c #B88682",
"{.	c #EDE9E2",
"].	c #EAE5DF",
"^.	c #B9A493",
"/.	c #767676",
"(.	c #8A8A93",
"_.	c #E6EEE9",
":.	c #EDE8E3",
"<.	c #EAE6DF",
"[.	c #E3DED7",
"}.	c #E1DDD8",
"|.	c #E6E3DE",
"1.	c #F3EFE9",
"2.	c #F2EEE7",
"3.	c #F0ECE5",
"4.	c #CDC1B2",
"5.	c #77675C",
"6.	c #707171",
"7.	c #9AA2A7",
"8.	c #DDE4E4",
"9.	c #EFEAE3",
"0.	c #E2DED9",
"a.	c #E0DBD7",
"b.	c #E0DBD6",
"c.	c #E8E4DE",
"d.	c #F1EBDD",
"e.	c #C0BAAB",
"f.	c #8C8F9E",
"g.	c #EDE2C9",
"h.	c #A5A3A1",
"i.	c #B0B5C7",
"j.	c #F3EEE6",
"k.	c #F6F2EC",
"l.	c #72786D",
"m.	c #5C6D58",
"n.	c #5E6F5A",
"o.	c #546150",
"p.	c #B5B6AE",
"q.	c #D7CDC0",
"r.	c #908173",
"s.	c #7A7467",
"t.	c #63686C",
"u.	c #A8B4C3",
"v.	c #FDF4F3",
"w.	c #1B511A",
"x.	c #007800",
"y.	c #008100",
"z.	c #008000",
"A.	c #008500",
"B.	c #004E00",
"C.	c #8EA388",
"D.	c #F7F0EC",
"E.	c #E6E1D9",
"F.	c #D7D3D0",
"G.	c #D0BFAA",
"H.	c #A2A19D",
"I.	c #BFCDD9",
"J.	c #F1ECE4",
"K.	c #FDF4F2",
"L.	c #225420",
"M.	c #007700",
"N.	c #008400",
"O.	c #005000",
"P.	c #91A48B",
"Q.	c #F6F0EC",
"R.	c #EFEBE1",
"S.	c #D1C8B8",
"T.	c #8A7F79",
"U.	c #7F8388",
"V.	c #B4BABF",
"W.	c #F1F0E8",
"X.	c #F7F2EB",
"Y.	c #F2EDE6",
"Z.	c #F1ECE5",
"`.	c #E6DED3",
" +	c #BDB5AE",
".+	c #C4C8C8",
"++	c #E8E7E4",
"@+	c #E0D6CC",
"#+	c #B1A598",
"$+	c #A3A3A0",
"%+	c #B2B4B3",
"&+	c #D8DADA",
"*+	c #F1ECE3",
"=+	c #C3B8A8",
"-+	c #6E6461",
";+	c #9FA5A9",
">+	c #C7C9C8",
",+	c #FE0000",
"'+	c #F2ECDE",
")+	c #B7AF9D",
"!+	c #676673",
"~+	c #B6AEA1",
"{+	c #A1A3A4",
"]+	c #CBD1D8",
"^+	c #F0EBE4",
"/+	c #DF0000",
"(+	c #8F0000",
"_+	c #FD0000",
":+	c #D50000",
"<+	c #A00000",
"[+	c #AE0000",
"}+	c #E50000",
"|+	c #F0ECE2",
"1+	c #C2BAAE",
"2+	c #939299",
"3+	c #EADEC5",
"4+	c #958F89",
"5+	c #A8B5C8",
"6+	c #EA0000",
"7+	c #760000",
"8+	c #DC0000",
"9+	c #E30000",
"0+	c #C30000",
"a+	c #B40000",
"b+	c #A20000",
"c+	c #E4DCD2",
"d+	c #B7AA9C",
"e+	c #928E89",
"f+	c #A4A9AD",
"g+	c #D9DCDE",
"h+	c #007F00",
"i+	c #008200",
"j+	c #008700",
"k+	c #008600",
"l+	c #A30000",
"m+	c #EEE9E2",
"n+	c #E1D9D0",
"o+	c #C8C5C2",
"p+	c #DCDCDA",
"q+	c #006300",
"r+	c #003900",
"s+	c #007300",
"t+	c #004000",
"u+	c #006B00",
"v+	c #A50000",
"w+	c #E40000",
"x+	c #FC0000",
"y+	c #B70000",
"z+	c #007400",
"A+	c #003500",
"B+	c #007A00",
"C+	c #005500",
"D+	c #006100",
"E+	c #005E00",
"F+	c #D60000",
"G+	c #540000",
"H+	c #840000",
"I+	c #F30000",
"J+	c #BF0000",
"K+	c #450000",
"L+	c #900000",
"M+	c #D00000",
"N+	c #004100",
"O+	c #004700",
"P+	c #006D00",
"Q+	c #D80000",
"R+	c #E00000",
"S+	c #FB0000",
"T+	c #EE0000",
"U+	c #D30000",
"V+	c #F00000",
"W+	c #F5F1EB",
"X+	c #F4EFE8",
"Y+	c #004300",
"Z+	c #008300",
"`+	c #004A00",
" @	c #007D00",
".@	c #006F00",
"+@	c #004B00",
"@@	c #F0EBE1",
"#@	c #CDC3B2",
"$@	c #796F6B",
"%@	c #73716D",
"&@	c #8E959A",
"*@	c #D2DADF",
"=@	c #001D00",
"-@	c #004900",
";@	c #006500",
">@	c #003100",
",@	c #005C00",
"'@	c #E9E4DD",
")@	c #E2DEDA",
"!@	c #E1D3BC",
"~@	c #9B9894",
"{@	c #AFB8C7",
"]@	c #007C00",
"^@	c #007600",
"/@	c #007900",
"(@	c #007E00",
"_@	c #F1ECE1",
":@	c #CAC0B1",
"<@	c #695650",
"[@	c #707980",
"}@	c #CBD9E1",
"|@	c #F1EBE4",
"1@	c #F0E5CD",
"2@	c #A5A29C",
"3@	c #ABB0BE",
"4@	c #CDC2B1",
"5@	c #766B66",
"6@	c #696561",
"7@	c #868E95",
"8@	c #D4DDE2",
"9@	c #F0EAE3",
"0@	c #EBE6DF",
"a@	c #E2DDD5",
"b@	c #DBD8D3",
"c@	c #E2E0DB",
"d@	c #D6CABC",
"e@	c #887767",
"f@	c #636364",
"g@	c #8B9298",
"h@	c #DAE3E5",
"i@	c #F1ECDF",
"j@	c #BDB9AD",
"k@	c #9194A2",
"l@	c #FFF3D5",
"m@	c #A9A39C",
"n@	c #AAB3C6",
"o@	c #F1EADC",
"p@	c #BFBAAA",
"q@	c #9397A9",
"r@	c #FFF5DB",
"s@	c #A9A59F",
"t@	c #ABAEBB",
"u@	c #F3EEE7",
"v@	c #F0ECE3",
"w@	c #C6BFB3",
"x@	c #8D888A",
"y@	c #C9BDA9",
"z@	c #9D9B9A",
"A@	c #BBC6D4",
"B@	c #F2ECE4",
"C@	c #FDF5F3",
"D@	c #1B4F1A",
"E@	c #004C00",
"F@	c #8EA288",
"G@	c #F5FAF3",
"H@	c #872221",
"I@	c #B6837F",
"J@	c #F2F4ED",
"K@	c #E2D7CC",
"L@	c #A99A88",
"M@	c #76797D",
"N@	c #A7ADB2",
"O@	c #E9ECE9",
"P@	c #F8F1EE",
"Q@	c #5E805A",
"R@	c #459942",
"S@	c #469F43",
"T@	c #46A243",
"U@	c #3B7E38",
"V@	c #ACB9A5",
"W@	c #F3EDE9",
"X@	c #F2F4EE",
"Y@	c #A7625F",
"Z@	c #ED4341",
"`@	c #FA4543",
" #	c #F94543",
".#	c #FE4543",
"+#	c #C63A39",
"@#	c #C7A39F",
"##	c #F0F0EA",
"$#	c #F4F1EC",
"%#	c #F8F3EC",
"&#	c #EBE8E1",
"*#	c #FBF3F1",
"=#	c #FEF1F3",
"-#	c #FEF0F3",
";#	c #FFF4F4",
">#	c #F3EEE9",
",#	c #ECE7E1",
"'#	c #F4F7F0",
")#	c #ECFAF3",
"!#	c #EBFAF3",
"~#	c #F1FBF4",
". + + + + + + + + + + + + + + + + + + + + + + + + + + + + + + + + + + + + + + + + + + + + + + + + + + + + + + + + + + + + + @ # ",
". + + + + + + + + + + + + + + + + + + + + + + + + + + + + + + + + + + + + + + + + + + + + + + + + + + + + + + + + + + + + + @ # ",
". + + + + + + + + + + + + + + + + + + + + + + + + + + + + + + + + + + + + + + + + + + + + + + + + + + + + + + + + + + + + + @ # ",
". + + + + + + + + + + + + + + + + + + + + + + + + + + + + + + + + + + + + + + + + + + + + + + + + + + + + + + + + + + + + + @ # ",
". + + + + + + + + + + + + + + + + + + + + + + + + + + + + + + + + + + + + + + + + + + + + + + + + + + + + + + + + + + + + + @ # ",
". + + + + + + + + + + + + + + + + + + + + + + + + + + + + + + + + + + + + + + + + + + + + + + + + + + + + + + + + + + + + + @ # ",
". + + + + + + + + + + + + + + + + + + + + + + + + + + + + + + + + + + + + + + + + + + + + + + + + + + + + + + + + + + + + + @ # ",
". + + + + + + + + + + + + + + + + + + + + + + + + + + + + + + + + + + + + + + + + + + + + + + + + + + + + + + + + + + + + + @ # ",
". + + + + + + + + + + + + + + + + + + + + + + + + + + + + + + + + + + + + + + + + + + + + + + + + + + + + + + + + + + + + + @ # ",
". + + + + + + + + + + + + + + + + + + + + + + + + + + + + + + + + + + + + + + + + + + + + + + + + + + + + + + + + + + + + + @ # ",
". + + + + + + + + + + + + + + + + + + + + + + + + + + + + + + + + + + + + + + + + + + + + + + + + + + + + + + + + + + + + + @ # ",
"$ % % % % % % % % % % % % % % % % % % % % % % % % % % % % % % % % % % % % % % % % % % % % % % % % % % % % % % % % % % % % % & * ",
". + + + + + + + + + + + + + + + + + + + + + + + + + + + + + + + + + + + + + + + + + + + + + + + + + + + + + + + + + + + + + @ # ",
". + + + + + + + + + + + + + + + + + + + + + + + + + + + + + + + + + + + + + + + + + + + + + + + + + + + + + + + + + + + + + @ # ",
". + + + + + + + + + + + + + + + + + + + + + + + + + + + + + + + + + + + + + + + + + + + + + + + + + + + + + + + + + + + + + @ # ",
". + + + + + + + + + + + + + + + + + + + + + + + + + + + + + + + + + + + + + + + + + + + + + + + + + + + + + + + + + + + + + @ # ",
". + + + + + + + + + + + + + + + + + + + + + + + + + + + + + + + + + + + + + + + + + + + + + + + + + + + + + + + + + + + + + @ # ",
". + + + + + + + + + + + + + + + + + + + + + + + + + + + + + + + + + + + + + + + + + + + + + + + + + + + + + + + + + + + + + @ # ",
". + + + + = - ; > , - ' ) ! , ~ + + + + + + + + + + + + + + + + + + + + + + + + + + + + + + + + + + + + + + + + + + + + + + @ # ",
". + + + + + { ] ^ / ( _ : < [ , + + + + + + + + + + + + + + + + + + + + + + + + + + + + + + + + + + + + + + + + + + + + + + @ # ",
". + + + + . } | 1 2 3 4 5 6 7 8 + + + + + + + + + + + + + + + + + + + + + + + + + + + + + + + + + + + + + + + + + + + + + + @ # ",
". + + + + + 9 0 a b c d e f g 8 + + + + + = + h > , ~ + + + + + + + + + + + + + + + + + + + + + + + + + + + + + + + + + + + @ # ",
". + + + + = i j k l m n o p q + + + + + + + r s t u v + + + + + + + + + + + + + + + + + + + + + + + + + + + + + + + + + + + @ # ",
". + + + + = w x y z A B C D v = + + + + + + E F G H I + + + + + + + + + = @ J J J J J J J J J J J J J J J J . = + + + + + + @ # ",
". + + + + K L M N O P Q R S T U + + + + + + + V W X I + + + + + + + + + Y Z `  . . . . . . . . . . . . . ...+.@.+ + + + + + @ # ",
". + + + + = + + + + + + + + + = + + + + + = + #.$.X %.~ + + + + + + + + &.*.=.-.-.-.-.-.-.-.-.-.-.-.-.-.-.;.>.,.+ + + + + + @ # ",
". + + + + + + + + + + + + + + + + + + + + + + '.).!.I + + + + + + + + + &.*.=.-.-.-.-.-.-.-.-.-.-.-.-.-.-.;.~.,.+ + + + + + @ # ",
". + + + {.= + + + + , = + + + + + + + + + + ].^./.(._.v + + + + + + + + &.*.=.-.-.-.-.-.-.-.-.-.-.-.-.-.-.;.~.,.+ + + + + + @ # ",
". + + + :.+ <.[.}.|.- {.+ + + = + + + + + + + i 1.2.v + + + + + + + = + &.*.=.-.-.-.-.-.-.-.-.-.-.-.-.-.-.;.~.,.+ + + + + + @ # ",
". + + + + 3.4.5.6.7.8.9.+ + + + 0.a.a.a.a.a.a.a.a.a.a.a.a.a.a.a.b.c.+ + &.*.=.-.-.-.-.-.-.-.-.-.-.-.-.-.-.;.~.,.+ + + + + + @ # ",
". + + + + d.e.f.g.h.i.j.+ + + k.l.m.n.n.n.n.n.n.n.n.n.n.n.n.n.n.o.p.@.+ &.*.=.-.-.-.-.-.-.-.-.-.-.-.-.-.-.;.~.,.+ + + + + + @ # ",
". + + + :.9 q.r.s.t.u.$ + + + v.w.x.y.z.z.z.z.z.z.z.z.z.z.z.z.A.B.C.D.+ &.*.=.-.-.-.-.-.-.-.-.-.-.-.-.-.-.;.~.,.+ + + + + + @ # ",
". + + + + {.E.F.G.H.I.J.+ + + K.L.M.z.z.z.z.z.z.z.z.z.z.z.z.z.N.O.P.Q.+ &.*.=.-.-.-.-.-.-.-.-.-.-.-.-.-.-.;.~.,.+ + + + + + @ # ",
". + + + + R.S.T.U.V.W., + + + K.L.M.z.z.z.z.z.z.z.z.z.z.z.z.z.N.O.P.Q.+ &.*.=.-.-.-.-.-.-.-.-.-.-.-.-.-.-.;.~.,.+ + + + + + @ # ",
". + + + , ~ m k.X.Y.= ~ + + + K.L.M.z.z.z.z.z.z.z.z.z.z.z.z.z.N.O.P.Q.+ &.*.=.-.-.-.-.-.-.-.-.-.-.-.-.-.-.;.~.,.+ + + + + + @ # ",
". + + + + + + + + + + + + + + K.L.M.z.z.z.z.z.z.z.z.z.z.z.z.z.N.O.P.Q.+ &.*.=.-.-.-.-.-.-.-.-.-.-.-.-.-.-.;.~.,.+ + + + + + @ # ",
". + + + + , ~ K @.Z.{.= + + + K.L.M.z.z.z.z.z.z.z.z.z.z.z.z.z.N.O.P.Q.+ &.*.=.-.-.-.-.-.-.-.-.-.-.-.-.-.-.;.~.,.+ + + + + + @ # ",
". + + + {.= 3.`. +.++++ + + + K.L.M.z.z.z.z.z.z.z.z.z.z.z.z.z.N.O.P.Q.+ &.*.=.-.-.-.-.-.-.-.-.-.-.-.-.-.-.;.~.,.+ + + + + + @ # ",
". + + + , K @+#+$+%+&+8 + + + K.L.M.z.z.z.z.z.z.z.z.z.z.z.z.z.N.O.P.Q.+ &.*.=.-.-.-.-.-.-.-.-.-.-.-.-.-.-.;.~.,.+ + + + + + @ # ",
". + + + + *+=+-+;+>+|.v + + + K.L.M.z.z.z.z.z.z.z.z.z.z.z.z.z.N.O.P.Q.+ &.*.=.-.-.,+-.-.-.-.-.-.-.-.,+-.-.;.~.,.+ + + + + + @ # ",
". + + + + '+)+!+~+{+]+^++ + + K.L.M.z.z.z.z.z.z.z.z.z.z.z.z.z.N.O.P.Q.+ &.*.=.-.-.-./+(+=._+:+<+[+}+-.-.-.;.~.,.+ + + + + + @ # ",
". + + + + |+1+2+3+4+5+j.+ + + K.L.M.z.z.z.z.z.z.z.z.z.z.z.z.z.N.O.P.Q.+ &.*.=.-.-.-.6+7+8+-.9+0+a+b+-.-.-.;.~.,.+ + + + + + @ # ",
". + + + :.. c+d+e+f+g+9.+ + + K.L.M.z.z.h+i+j+h+h+y.k+N.i+h+z.N.O.P.Q.+ &.*.=.-.-.,+-.l+8+-.-.-.;.;.-.-.-.;.~.,.+ + + + + + @ # ",
". + + + {.- m+n+o+p+@ = + + + K.L.M.z.z.z.q+r+z.z.s+t+B.u+i+h+N.O.P.Q.+ &.*.=.-.-.,+-.v+w+-.x+0+y+_+-.-.-.;.~.,.+ + + + + + @ # ",
". + + + + = - . J . = ~ + + + K.L.M.z.z.z.z+A+z.B+C+D+E+O.N.z.N.O.P.Q.+ &.*.=.-.-.-.F+G+H+I+J+K+L+M+-.-.-.;.~.,.+ + + + + + @ # ",
". + + + + + + + + + + + + + + K.L.M.z.z.h+h+N+h+M.O+i+P+B.i+z.N.O.P.Q.+ &.*.=.-.-.-.I+Q+R+S+T+U+}+V+-.-.-.;.~.,.+ + + + + + @ # ",
". + + + , ~ m W+W+X+9.= + + + K.L.M.z.z.h+z.Y+Z+x.`+ @.@+@Z+z.N.O.P.Q.+ &.*.=.-.-.,+-.-.-.-.-.-.-.-.,+-.-.;.~.,.+ + + + + + @ # ",
". + + + + @@#@$@%@&@*@^++ + + K.L.M.z.z.z.E+=@-@z.;@>@t+,@Z+z.N.O.P.Q.+ &.*.=.-.-.-.-.-.-.-.-.-.-.-.-.-.-.;.~.,.+ + + + + + @ # ",
". + + + + {.'@)@!@~@{@j.+ + + K.L.M.z.z.z.]@^@/@z.(@M./@ @z.h+N.O.P.Q.+ &.*.=.-.-.-.-.-.-.-.-.-.-.-.-.-.-.;.~.,.+ + + + + + @ # ",
". + + + , - _@:@<@[@}@|@+ + + K.L.M.z.z.h+z.z.z.h+z.z.z.z.h+z.N.O.P.Q.+ &.*.=.-.-.-.-.-.-.-.-.-.-.-.-.-.-.;.~.,.+ + + + + + @ # ",
". + + + , ~ . m 1@2@3@j.+ + + K.L.M.z.z.z.z.z.z.z.z.z.z.z.z.z.N.O.P.Q.+ &.*.=.-.-.-.-.-.-.-.-.-.-.-.-.-.-.;.~.,.+ + + + + + @ # ",
". + + + + @@4@5@6@7@8@9@+ + + K.L.M.z.z.z.z.z.z.z.z.z.z.z.z.z.N.O.P.Q.+ &.*.=.-.-.-.-.-.-.-.-.-.-.-.-.-.-.;.~.,.+ + + + + + @ # ",
". + + + , ~ + + + + {.= + + + K.L.M.z.z.z.z.z.z.z.z.z.z.z.z.z.N.O.P.Q.+ &.*.=.-.-.-.-.-.-.-.-.-.-.-.-.-.-.;.~.,.+ + + + + + @ # ",
". + + + + + + + + + + + + + + K.L.M.z.z.z.z.z.z.z.z.z.z.z.z.z.N.O.P.Q.+ &.*.=.-.-.-.-.-.-.-.-.-.-.-.-.-.-.;.~.,.+ + + + + + @ # ",
". + + + + + + + + + + + + + + K.L.M.z.z.z.z.z.z.z.z.z.z.z.z.z.N.O.P.Q.+ &.*.=.-.-.-.-.-.-.-.-.-.-.-.-.-.-.;.~.,.+ + + + + + @ # ",
". + + + + = + + + + , = + + + K.L.M.z.z.z.z.z.z.z.z.z.z.z.z.z.N.O.P.Q.+ &.*.=.-.-.-.-.-.-.-.-.-.-.-.-.-.-.;.~.,.+ + + + + + @ # ",
". + + + , + 0@a@b@c@- {.+ + + K.L.M.z.z.z.z.z.z.z.z.z.z.z.z.z.N.O.P.Q.+ &.*.=.-.-.-.-.-.-.-.-.-.-.-.-.-.-.;.~.,.+ + + + + + @ # ",
". + + + + 9 d@e@f@g@h@9.+ + + K.L.M.z.z.z.z.z.z.z.z.z.z.z.z.z.N.O.P.Q.+ &.*.=.-.-.-.-.-.-.-.-.-.-.-.-.-.-.;.~.,.+ + + + + + @ # ",
". + + + + i@j@k@l@m@n@j.+ + + K.L.M.z.z.z.z.z.z.z.z.z.z.z.z.z.N.O.P.Q.+ &.*.=.-.-.-.-.-.-.-.-.-.-.-.-.-.-.;.~.,.+ + + + + + @ # ",
". + + + + o@p@q@r@s@t@u@+ + + K.L.M.z.z.z.z.z.z.z.z.z.z.z.z.z.N.O.P.Q.+ &.*.=.-.-.-.-.-.-.-.-.-.-.-.-.-.-.;.~.,.+ + + + + + @ # ",
". + + + + v@w@x@y@z@A@B@+ + + C@D@z+ @]@]@]@]@]@]@]@]@]@]@]@]@z.E@F@D.+ G@H@=.-.-.-.-.-.-.-.-.-.-.-.-.-.-.a+I@J@+ + + + + + @ # ",
". + + + , K K@L@M@N@O@m++ + + P@Q@R@S@S@S@S@S@S@S@S@S@S@S@S@S@T@U@V@W@+ X@Y@Z@`@ # # # # # # # # # # # #.#+#@###+ + + + + + @ # ",
". + + + + = K $#%#X+, = + + + &#*#=#-#-#-#-#-#-#-#-#-#-#-#-#-#-#;#>#= + ,#'#)#!#!#!#!#!#!#!#!#!#!#!#!#!#!#~###= + + + + + + @ # ",
". + + + = + K . . . . . . . . . . . . . . . . . . . . . . . . . . . . . . . . . . . . . . . . . . + @ @ . @ @ @ . {.= + + + @ # "};
